<svg xmlns="http://www.w3.org/2000/svg" width="760" height="320" viewBox="0 0 760 320" role="img" aria-label="Article totals by topic category">
<style>
  .title { font: 700 16px system-ui, sans-serif; fill: #6b7280; }
  .label { font: 600 12px system-ui, sans-serif; fill: #6b7280; }
  .value { font: 600 12px system-ui, sans-serif; fill: #6b7280; }
  .bar { fill: #1a7f37; }
  .axis { stroke: #d8d8d8; stroke-width: 1; }
</style>
<rect width="100%" height="100%" fill="transparent" rx="12" ry="12"/>
<text x="40" y="32" class="title">Article totals by topic category</text>
<line x1="220" y1="28" x2="220" y2="288" class="axis"/>
  <text x="40" y="59.166666666666664" class="label">Cardiovascular</text>
  <rect x="220" y="40" width="500" height="28.333333333333332" class="bar" rx="6" ry="6"/>
  <text x="730" y="59.166666666666664" class="value">18</text>
  <text x="40" y="101.5" class="label">Pediatric gastroenterology</text>
  <rect x="220" y="82.33333333333333" width="278" height="28.333333333333332" class="bar" rx="6" ry="6"/>
  <text x="508" y="101.5" class="value">10</text>
  <text x="40" y="143.83333333333331" class="label">Skin cancer prevention</text>
  <rect x="220" y="124.66666666666666" width="222" height="28.333333333333332" class="bar" rx="6" ry="6"/>
  <text x="452" y="143.83333333333331" class="value">8</text>
  <text x="40" y="186.16666666666666" class="label">Opioid stewardship</text>
  <rect x="220" y="167" width="139" height="28.333333333333332" class="bar" rx="6" ry="6"/>
  <text x="369" y="186.16666666666666" class="value">5</text>
  <text x="40" y="228.49999999999997" class="label">Neonatal</text>
  <rect x="220" y="209.33333333333331" width="139" height="28.333333333333332" class="bar" rx="6" ry="6"/>
  <text x="369" y="228.49999999999997" class="value">5</text>
  <text x="40" y="270.8333333333333" class="label">Cardiology</text>
  <rect x="220" y="251.66666666666663" width="28" height="28.333333333333332" class="bar" rx="6" ry="6"/>
  <text x="258" y="270.8333333333333" class="value">1</text>
</svg>